<?xml version="1.0" encoding="UTF-8" standalone="no"?><!-- Generator: Gravit.io --><svg xmlns="http://www.w3.org/2000/svg" xmlns:xlink="http://www.w3.org/1999/xlink" style="isolation:isolate" viewBox="0 0 600 600" width="600pt" height="600pt"><defs><clipPath id="_clipPath_7ec0KyRFfpFXoiUflMZ1m02wAlVkLlKS"><rect width="600" height="600"/></clipPath></defs><g clip-path="url(#_clipPath_7ec0KyRFfpFXoiUflMZ1m02wAlVkLlKS)"><g><rect x="218.834" y="465.507" width="297.666" height="82.663" transform="matrix(1,0,0,1,0,0)" fill="rgb(255,255,255)"/><rect x="194.463" y="367.697" width="236.748" height="82.663" transform="matrix(0,-1,1,0,-96.192,721.865)" fill="rgb(255,255,255)"/><path d=" M 83.5 290.655 L 83.5 409.029 L 83.5 409.029 Q 83.5 447.795 101.844 479.292 L 101.844 479.292 L 101.844 479.292 Q 120.189 510.789 150.648 529.48 L 150.648 529.48 L 150.648 529.48 Q 181.107 548.17 218.488 548.17 L 218.488 548.17 L 218.488 548.17 Q 256.562 548.17 287.02 529.48 L 287.02 529.48 L 287.02 529.48 Q 317.479 510.789 335.824 479.292 L 335.824 479.292 L 335.824 479.292 Q 354.168 447.795 354.168 409.029 L 354.168 409.029 L 354.168 294.116 L 354.168 294.116 Q 354.168 290.655 351.399 290.655 L 221.949 290.655 Q 218.488 290.655 218.488 294.116 L 218.488 294.116 L 218.488 371.648 L 218.488 371.648 Q 218.488 375.109 221.949 375.109 L 221.949 375.109 L 270.407 375.109 L 270.407 409.029 L 270.407 409.029 Q 270.407 432.565 255.523 448.487 L 255.523 448.487 L 255.523 448.487 Q 240.64 464.409 218.488 464.409 L 218.488 464.409 L 218.488 464.409 Q 197.721 464.409 182.491 448.141 L 182.491 448.141 L 182.491 448.141 Q 167.262 431.873 167.262 409.029 L 167.262 409.029 L 167.262 290.655 L 83.5 290.655 Z  M 83.5 224.199 L 83.5 189.587 L 83.5 189.587 Q 83.5 152.205 101.844 120.708 L 101.844 120.708 L 101.844 120.708 Q 120.189 89.211 150.994 70.52 L 150.994 70.52 L 150.994 70.52 Q 181.799 51.83 218.488 51.83 L 218.488 51.83 L 218.488 51.83 Q 256.562 51.83 287.366 70.174 L 287.366 70.174 L 287.366 70.174 Q 318.171 88.519 336.17 119.67 L 336.17 119.67 L 336.17 119.67 Q 354.168 150.821 354.168 189.587 L 354.168 189.587 L 354.168 221.43 L 354.168 221.43 Q 354.168 224.199 350.707 224.199 L 273.175 224.199 Q 270.407 224.199 270.407 221.43 L 270.407 221.43 L 270.407 195.125 L 270.407 195.125 Q 270.407 168.819 255.523 151.513 L 255.523 151.513 L 255.523 151.513 Q 240.64 134.207 218.488 134.207 L 218.488 134.207 L 218.488 134.207 Q 198.413 134.207 182.837 150.821 L 182.837 150.821 L 182.837 150.821 Q 167.262 167.435 167.262 189.587 L 167.262 189.587 L 167.262 224.199 L 83.5 224.199 Z " fill-rule="evenodd" fill="rgb(255,255,255)"/></g></g></svg>