<?xml version="1.0" encoding="UTF-8" standalone="no"?><!-- Generator: Gravit.io --><svg xmlns="http://www.w3.org/2000/svg" xmlns:xlink="http://www.w3.org/1999/xlink" style="isolation:isolate" viewBox="0 0 600 600" width="600pt" height="600pt"><defs><clipPath id="_clipPath_oRm6CjFuzqLTM3EXiRYI39ufJHyk4jIy"><rect width="600" height="600"/></clipPath></defs><g clip-path="url(#_clipPath_oRm6CjFuzqLTM3EXiRYI39ufJHyk4jIy)"><g><rect x="265.853" y="390.713" width="163.147" height="45.307" transform="matrix(1,0,0,1,0,0)" fill="rgb(0,0,0)"/><rect x="252.495" y="337.104" width="129.759" height="45.307" transform="matrix(0,-1,1,0,-42.383,677.132)" fill="rgb(0,0,0)"/><path d=" M 191.678 294.878 L 191.678 359.757 L 191.678 359.757 Q 191.678 381.004 201.732 398.268 L 201.732 398.268 L 201.732 398.268 Q 211.787 415.531 228.481 425.775 L 228.481 425.775 L 228.481 425.775 Q 245.175 436.019 265.663 436.019 L 265.663 436.019 L 265.663 436.019 Q 286.531 436.019 303.225 425.775 L 303.225 425.775 L 303.225 425.775 Q 319.919 415.531 329.974 398.268 L 329.974 398.268 L 329.974 398.268 Q 340.028 381.004 340.028 359.757 L 340.028 359.757 L 340.028 296.775 L 340.028 296.775 Q 340.028 294.878 338.51 294.878 L 267.56 294.878 Q 265.663 294.878 265.663 296.775 L 265.663 296.775 L 265.663 339.269 L 265.663 339.269 Q 265.663 341.166 267.56 341.166 L 267.56 341.166 L 294.119 341.166 L 294.119 359.757 L 294.119 359.757 Q 294.119 372.657 285.962 381.384 L 285.962 381.384 L 285.962 381.384 Q 277.804 390.11 265.663 390.11 L 265.663 390.11 L 265.663 390.11 Q 254.281 390.11 245.934 381.194 L 245.934 381.194 L 245.934 381.194 Q 237.587 372.278 237.587 359.757 L 237.587 359.757 L 237.587 294.878 L 191.678 294.878 Z  M 191.678 258.454 L 191.678 239.484 L 191.678 239.484 Q 191.678 218.996 201.732 201.732 L 201.732 201.732 L 201.732 201.732 Q 211.787 184.469 228.671 174.225 L 228.671 174.225 L 228.671 174.225 Q 245.554 163.981 265.663 163.981 L 265.663 163.981 L 265.663 163.981 Q 286.531 163.981 303.415 174.035 L 303.415 174.035 L 303.415 174.035 Q 320.299 184.09 330.163 201.163 L 330.163 201.163 L 330.163 201.163 Q 340.028 218.237 340.028 239.484 L 340.028 239.484 L 340.028 256.937 L 340.028 256.937 Q 340.028 258.454 338.131 258.454 L 295.637 258.454 Q 294.119 258.454 294.119 256.937 L 294.119 256.937 L 294.119 242.519 L 294.119 242.519 Q 294.119 228.102 285.962 218.616 L 285.962 218.616 L 285.962 218.616 Q 277.804 209.131 265.663 209.131 L 265.663 209.131 L 265.663 209.131 Q 254.66 209.131 246.123 218.237 L 246.123 218.237 L 246.123 218.237 Q 237.587 227.343 237.587 239.484 L 237.587 239.484 L 237.587 258.454 L 191.678 258.454 Z " fill-rule="evenodd" fill="rgb(0,0,0)"/></g></g></svg>