<?xml version="1.0" encoding="UTF-8" standalone="no"?><!-- Generator: Gravit.io --><svg xmlns="http://www.w3.org/2000/svg" xmlns:xlink="http://www.w3.org/1999/xlink" style="isolation:isolate" viewBox="727 390 64 64" width="64pt" height="64pt"><defs><clipPath id="_clipPath_HBqOn14gyXreZTdxLq3sScxCkhuolg8j"><rect x="727" y="390" width="64" height="64"/></clipPath></defs><g clip-path="url(#_clipPath_HBqOn14gyXreZTdxLq3sScxCkhuolg8j)"><mask id="_mask_7GpdmznvcvujZRwPSgeQytbsdvgiFcVZ"><rect x="727" y="390" width="32" height="32" fill="white" stroke="none"/></mask><rect x="727" y="390" width="32" height="32" transform="matrix(1,0,0,1,0,0)" fill="rgb(239,239,239)"/><rect x="727" y="390" width="32" height="32" transform="matrix(1,0,0,1,0,0)" fill="rgb(239,239,239)" mask="url(#_mask_7GpdmznvcvujZRwPSgeQytbsdvgiFcVZ)" vector-effect="non-scaling-stroke" stroke-width="8" stroke="rgb(0,0,0)" stroke-linejoin="miter" stroke-linecap="square" stroke-miterlimit="2"/><mask id="_mask_2YdMthxd65Q312xsZQ1YR38CNerzpOgj"><rect x="743" y="406" width="32" height="32" fill="white" stroke="none"/></mask><rect x="743" y="406" width="32" height="32" transform="matrix(1,0,0,1,0,0)" fill="rgb(239,239,239)"/><rect x="743" y="406" width="32" height="32" transform="matrix(1,0,0,1,0,0)" fill="rgb(239,239,239)" mask="url(#_mask_2YdMthxd65Q312xsZQ1YR38CNerzpOgj)" vector-effect="non-scaling-stroke" stroke-width="8" stroke="rgb(0,0,0)" stroke-linejoin="miter" stroke-linecap="square" stroke-miterlimit="2"/><mask id="_mask_IIXXXkqG7wh4MM0r5SARH8urIHfaTR2X"><rect x="759" y="422" width="32" height="32" fill="white" stroke="none"/></mask><rect x="759" y="422" width="32" height="32" transform="matrix(1,0,0,1,0,0)" fill="rgb(239,239,239)"/><rect x="759" y="422" width="32" height="32" transform="matrix(1,0,0,1,0,0)" fill="rgb(239,239,239)" mask="url(#_mask_IIXXXkqG7wh4MM0r5SARH8urIHfaTR2X)" vector-effect="non-scaling-stroke" stroke-width="8" stroke="rgb(0,0,0)" stroke-linejoin="miter" stroke-linecap="square" stroke-miterlimit="2"/></g></svg>