<?xml version="1.0" encoding="UTF-8" standalone="no"?><!-- Generator: Gravit.io --><svg xmlns="http://www.w3.org/2000/svg" xmlns:xlink="http://www.w3.org/1999/xlink" style="isolation:isolate" viewBox="636.109 372.301 120 146.848" width="120pt" height="146.848pt"><defs><clipPath id="_clipPath_wk3AfSUVRVWV2aUDtvAzhlbXo2tpZy4c"><rect x="636.109" y="372.301" width="120" height="146.848"/></clipPath></defs><g clip-path="url(#_clipPath_wk3AfSUVRVWV2aUDtvAzhlbXo2tpZy4c)"><path d=" M 689.535 501.184 L 689.5 467.258 L 679.691 467.258 L 679.656 501.184 L 679.656 501.184 Q 679.621 503.68 679.129 505.578 L 679.129 505.578 L 679.129 505.578 Q 678.637 507.477 677.652 508.742 L 677.652 508.742 L 677.652 508.742 Q 676.738 509.973 675.35 510.588 L 675.35 510.588 L 675.35 510.588 Q 673.961 511.203 672.168 511.203 L 672.168 511.203 L 672.168 511.203 Q 670.516 511.203 669.25 510.623 L 669.25 510.623 L 669.25 510.623 Q 667.984 510.043 667.105 508.883 L 667.105 508.883 L 667.105 508.883 Q 666.156 507.617 665.682 505.684 L 665.682 505.684 L 665.682 505.684 Q 665.207 503.75 665.172 501.184 L 665.172 501.184 L 665.137 467.258 L 655.258 467.258 L 655.223 501.184 L 655.223 501.184 Q 655.223 505.473 656.436 508.83 L 656.436 508.83 L 656.436 508.83 Q 657.648 512.188 659.863 514.473 L 659.863 514.473 L 659.863 514.473 Q 662.078 516.758 665.189 517.953 L 665.189 517.953 L 665.189 517.953 Q 668.301 519.148 672.168 519.148 L 672.168 519.148 L 672.168 519.148 Q 676.281 519.148 679.498 517.953 L 679.498 517.953 L 679.498 517.953 Q 682.715 516.758 684.965 514.438 L 684.965 514.438 L 684.965 514.438 Q 687.18 512.152 688.357 508.813 L 688.357 508.813 L 688.357 508.813 Q 689.535 505.473 689.535 501.184 L 689.535 501.184 L 689.535 501.184 Z  M 730.387 467.258 L 700.785 467.258 L 700.785 475.238 L 710.523 475.238 L 710.523 510.5 L 700.785 510.5 L 700.785 518.445 L 730.387 518.445 L 730.387 510.5 L 720.402 510.5 L 720.402 475.238 L 730.387 475.238 L 730.387 467.258 L 730.387 467.258 Z  M 689.535 406.227 L 689.5 372.301 L 679.691 372.301 L 679.656 406.227 L 679.656 406.227 Q 679.621 408.723 679.129 410.621 L 679.129 410.621 L 679.129 410.621 Q 678.637 412.52 677.652 413.785 L 677.652 413.785 L 677.652 413.785 Q 676.738 415.016 675.35 415.631 L 675.35 415.631 L 675.35 415.631 Q 673.961 416.246 672.168 416.246 L 672.168 416.246 L 672.168 416.246 Q 670.516 416.246 669.25 415.666 L 669.25 415.666 L 669.25 415.666 Q 667.984 415.086 667.105 413.926 L 667.105 413.926 L 667.105 413.926 Q 666.156 412.66 665.682 410.727 L 665.682 410.727 L 665.682 410.727 Q 665.207 408.793 665.172 406.227 L 665.172 406.227 L 665.137 372.301 L 655.258 372.301 L 655.223 406.227 L 655.223 406.227 Q 655.223 410.516 656.436 413.873 L 656.436 413.873 L 656.436 413.873 Q 657.648 417.23 659.863 419.516 L 659.863 419.516 L 659.863 419.516 Q 662.078 421.801 665.189 422.996 L 665.189 422.996 L 665.189 422.996 Q 668.301 424.191 672.168 424.191 L 672.168 424.191 L 672.168 424.191 Q 676.281 424.191 679.498 422.996 L 679.498 422.996 L 679.498 422.996 Q 682.715 421.801 684.965 419.48 L 684.965 419.48 L 684.965 419.48 Q 687.18 417.195 688.357 413.855 L 688.357 413.855 L 688.357 413.855 Q 689.535 410.516 689.535 406.227 L 689.535 406.227 L 689.535 406.227 Z  M 725.043 372.301 L 715.938 390.652 L 706.973 372.301 L 695.441 372.301 L 709.82 397.684 L 695.055 423.488 L 706.727 423.488 L 716.078 404.855 L 725.465 423.488 L 736.996 423.488 L 722.23 397.684 L 736.645 372.301 L 725.043 372.301 L 725.043 372.301 Z " fill="rgb(0,0,0)"/><rect x="636.109" y="442.587" width="120" height="6.275" transform="matrix(1,0,0,1,0,0)" fill="rgb(0,0,0)"/></g></svg>